<svg width="31" height="190" viewBox="0 0 31 190" fill="none" xmlns="http://www.w3.org/2000/svg">
<g style="mix-blend-mode:difference">
<path d="M2.66401 179.899H6.3118e-06L6.19535e-06 177.235H2.66401V179.899ZM25.164 189.367H22.464V179.899H5.68801L5.68801 177.235H25.164V189.367Z" fill="#8FFF01"/>
<path d="M12.6 174.564H11.7C7.30801 174.564 5.61601 170.712 5.61601 166.788V166.32C5.61601 162 7.92001 158.688 12.492 158.688H25.164V161.352H21.096L21.024 162.576L21.204 162.612C24.192 163.152 25.164 165.636 25.164 168.48C25.164 171.54 23.868 174.672 20.52 174.672C16.992 174.672 15.876 173.304 14.976 170.28C14.76 169.38 14.58 168.408 14.364 167.4L13.068 161.352H12.924C9.79201 161.352 7.99201 163.728 7.99201 166.608C7.99201 169.056 8.96401 171.828 11.772 171.828C12.06 171.864 12.348 171.864 12.636 171.864L12.6 174.564ZM15.264 161.388L16.74 167.184C16.92 167.976 17.1 168.768 17.352 169.524C17.784 170.964 18.252 171.936 20.016 171.936C22.032 171.936 22.608 170.388 22.716 168.696C22.752 168.156 22.752 167.616 22.752 167.148C22.752 164.772 21.816 162.72 19.476 161.82C18.9 161.568 18.18 161.388 17.532 161.388H15.264Z" fill="#8FFF01"/>
<path d="M25.164 155.969H5.68801L5.68801 153.269H9.75601V152.045H9.57601C6.80401 152.045 5.68801 149.381 5.68801 146.897C5.68801 144.485 6.91201 141.749 9.57601 141.749H9.75601V140.489H9.57601C6.80401 140.489 5.68801 136.673 5.68801 134.297C5.68801 130.157 7.52401 126.773 11.952 126.773H25.164L25.164 129.473H12.024C9.43201 129.473 8.06401 131.633 8.06401 133.937C8.06401 137.321 10.044 139.949 13.716 139.949C14.292 139.949 14.832 140.021 15.408 140.021H25.164V142.721H12.024C9.43201 142.721 8.06401 144.881 8.06401 147.221C8.06401 150.605 10.044 153.197 13.716 153.197C14.292 153.197 14.832 153.269 15.408 153.269H25.164V155.969Z" fill="#8FFF01"/>
<path d="M2.70001 118.092H3.61011e-06L3.49366e-06 115.428H2.70001V118.092ZM25.164 124.68L22.716 124.68L22.752 118.092H8.1L8.10001 124.68H5.68801C5.68801 124.572 5.68801 124.5 5.68801 124.392L5.688 108.588H8.1L8.064 115.428H22.752L22.752 108.588H25.164V124.68Z" fill="#8FFF01"/>
<path d="M15.732 105.74H17.136C19.692 105.74 21.528 104.552 22.356 102.14C22.572 101.528 22.752 100.736 22.752 100.052C22.752 97.2439 21.204 95.4439 18.36 95.2279V92.5639C22.968 92.6359 25.164 96.0559 25.164 100.448C25.164 105.2 22.248 108.296 17.316 108.296H13.536C9.9 108.296 7.2 106.748 6.12 103.292C5.83201 102.428 5.688 101.456 5.688 100.556C5.688 96.5239 7.488 92.5639 11.952 92.5639H15.696L15.732 105.74ZM13.14 105.668L13.104 95.2999H12.96C12.636 95.2999 12.348 95.2639 12.024 95.2639C8.964 95.2639 8.064 97.8919 8.064 100.376C8.064 103.328 9.756 105.704 12.96 105.668H13.14Z" fill="#8FFF01"/>
<path d="M18.468 90.5771L18.432 87.8051C18.576 87.8051 18.72 87.8051 18.9 87.8051C22.068 87.8051 22.86 84.4931 22.86 82.0811C22.86 80.1371 22.5 77.4371 19.764 77.4371C19.296 77.4371 18.792 77.6531 18.432 77.9051C16.812 78.9131 16.488 81.0011 16.38 82.6571C16.128 86.0051 15.336 90.4691 11.268 90.4691C6.768 90.4691 5.616 86.1131 5.616 82.3331C5.616 78.4091 7.74 74.7731 11.952 74.6651H12.528C12.492 75.5651 12.528 76.4651 12.528 77.4011H12.024C9.216 77.5811 8.064 79.4891 8.064 82.2611V82.4411C8.064 84.1691 8.244 87.7691 10.944 87.7691C13.284 87.7691 13.86 84.3851 14.04 82.5851C14.328 78.8411 15.336 74.7731 19.764 74.7731C20.412 74.7731 21.24 74.9531 21.888 75.2051C24.696 76.3571 25.308 79.4531 25.308 82.2611C25.308 85.2851 24.444 88.3451 21.6 89.8931C20.772 90.3251 19.872 90.5771 18.972 90.5771H18.468Z" fill="#8FFF01"/>
<path d="M30.852 72.2616L5.688 72.2616V69.5616L9.792 69.5976V68.3736L9.648 68.3376C6.804 67.7976 5.724 65.5296 5.724 62.7936C5.724 58.9056 8.028 56.3496 11.988 56.3496H18.9C22.824 56.3496 25.164 58.9056 25.164 62.7936C25.164 65.5296 24.084 67.7976 21.24 68.3376L21.06 68.3736V69.5616H30.852V72.2616ZM17.136 69.4896C20.88 69.4896 22.752 66.8256 22.752 63.4416C22.752 61.1376 21.348 59.0136 18.828 59.0136H12.024C9.468 59.0136 8.064 61.2096 8.064 63.5136C8.064 66.8976 10.044 69.4896 13.716 69.4896H17.136Z" fill="#8FFF01"/>
<path d="M25.164 55.6318H22.536V52.5718H25.164V55.6318Z" fill="#8FFF01"/>
<path d="M21.06 39.3899L21.24 39.4259C24.084 39.9659 25.164 42.2339 25.164 44.9699C25.164 48.8219 22.824 51.4139 18.9 51.4139H11.916C7.956 51.4139 5.688 48.8219 5.688 44.9339C5.688 42.2339 6.732 39.9299 9.576 39.3899H9.72V38.1659H1.16447e-07L0 35.5019L25.164 35.5019V38.1659H21.06V39.3899ZM18.828 48.7139C21.348 48.7139 22.752 46.6259 22.752 44.3219C22.752 40.9379 20.88 38.2379 17.136 38.2379H13.68C10.008 38.2379 8.028 40.8659 8.028 44.2499C8.028 46.5539 9.432 48.7139 11.988 48.7139H18.828Z" fill="#8FFF01"/>
<path d="M15.732 30.2594H17.136C19.692 30.2594 21.528 29.0714 22.356 26.6594C22.572 26.0474 22.752 25.2554 22.752 24.5714C22.752 21.7634 21.204 19.9634 18.36 19.7474V17.0834C22.968 17.1554 25.164 20.5754 25.164 24.9674C25.164 29.7194 22.248 32.8154 17.316 32.8154H13.536C9.9 32.8154 7.2 31.2674 6.12 27.8114C5.832 26.9474 5.688 25.9754 5.688 25.0754C5.688 21.0434 7.488 17.0834 11.952 17.0834H15.696L15.732 30.2594ZM13.14 30.1874L13.104 19.8194H12.96C12.636 19.8194 12.348 19.7834 12.024 19.7834C8.964 19.7834 8.064 22.4114 8.064 24.8954C8.064 27.8474 9.756 30.2234 12.96 30.1874H13.14Z" fill="#8FFF01"/>
<path d="M25.164 9.9L5.688 15.696L5.688 12.996L21.78 8.208V7.524L5.688 2.736V0L25.164 5.796V9.9Z" fill="#8FFF01"/>
</g>
</svg>
